<svg width="31" height="42" viewBox="0 0 31 42" fill="none" xmlns="http://www.w3.org/2000/svg">
<path d="M0 12.9752C0 10.2138 2.23858 7.97522 5 7.97522H11.26V18.486H0V12.9752Z" fill="white"/>
<path d="M0 23.7415H11.26V34.2522H5C2.23858 34.2522 0 32.0136 0 29.2522V23.7415Z" fill="white"/>
<path d="M3.75339 7.99669L23.5557 7.99669L23.5557 20.2378L3.75339 7.99669Z" fill="white"/>
<path d="M24.0098 20.5201L24.0097 34.3666L5.5 34.3666L24.0098 20.5201Z" fill="white"/>
<path d="M23.4583 7.97522V7.97522C26.0494 7.97522 28.1499 10.0758 28.1499 12.6669V29.5604C28.1499 32.1516 26.0494 34.2521 23.4583 34.2521V34.2521V7.97522Z" fill="white"/>
</svg>
