<svg width="30" height="29" viewBox="0 0 30 29" fill="none" xmlns="http://www.w3.org/2000/svg">
<path fill-rule="evenodd" clip-rule="evenodd" d="M15.2925 3.29103C15.2094 3.22758 15.1063 3.19302 15 3.19302C14.8937 3.19302 14.7906 3.22758 14.7075 3.29103L4.86375 10.8236C4.80861 10.8658 4.76411 10.9193 4.73359 10.9801C4.70308 11.041 4.68731 11.1077 4.6875 11.1752V23.7636C4.6875 24.0111 4.8975 24.212 5.15625 24.212H10.3125V14.7962C10.3125 14.4394 10.4607 14.0973 10.7244 13.8451C10.9881 13.5928 11.3458 13.4511 11.7188 13.4511H18.2812C18.6542 13.4511 19.0119 13.5928 19.2756 13.8451C19.5394 14.0973 19.6875 14.4394 19.6875 14.7962V24.212H24.8438C24.9681 24.212 25.0873 24.1648 25.1752 24.0807C25.2632 23.9966 25.3125 23.8825 25.3125 23.7636V11.1734C25.3123 11.1062 25.2966 11.0398 25.266 10.9793C25.2354 10.9188 25.1912 10.8656 25.1362 10.8236L15.2925 3.29103ZM12.9488 1.19086C13.5306 0.745397 14.2537 0.502693 14.9991 0.502693C15.7444 0.502693 16.4675 0.745397 17.0494 1.19086L26.8931 8.72348C27.6713 9.3189 28.125 10.221 28.125 11.1752V23.7636C28.125 24.5959 27.7792 25.3942 27.1639 25.9828C26.5485 26.5715 25.7139 26.9022 24.8438 26.9022H18.2812C17.9083 26.9022 17.5506 26.7605 17.2869 26.5081C17.0232 26.256 16.875 25.9138 16.875 25.5571V16.1413H13.125V25.5571C13.125 25.9138 12.9768 26.256 12.7131 26.5081C12.4494 26.7605 12.0917 26.9022 11.7188 26.9022H5.15625C4.28601 26.9022 3.45141 26.5715 2.83605 25.9828C2.22069 25.3942 1.875 24.5959 1.875 23.7636V11.1734C1.875 10.221 2.32875 9.3189 3.10687 8.72348L12.9506 1.19086H12.9488Z" fill="#616161"/>
</svg>
