<svg width="33" height="33" viewBox="0 0 45 45" fill="none" xmlns="http://www.w3.org/2000/svg">
    <rect width="45" height="45" rx="10" fill="#D9D9D9" fill-opacity="0.3" />
    <path d="M28.5455 10.3939C29.0759 9.86352 29.7953 9.56552 30.5455 9.56552C30.9169 9.56552 31.2847 9.63868 31.6278 9.78082C31.971 9.92296 32.2828 10.1313 32.5455 10.3939C32.8081 10.6566 33.0164 10.9684 33.1586 11.3116C33.3007 11.6547 33.3739 12.0225 33.3739 12.3939C33.3739 12.7654 33.3007 13.1332 33.1586 13.4763C33.0164 13.8195 32.8081 14.1313 32.5455 14.3939L15.8788 31.0606L10.5455 32.3939L11.8788 27.0606L28.5455 10.3939Z" stroke="black" stroke-width="2" stroke-linecap="round" stroke-linejoin="round" />
    <path d="M22.5455 32.394H34.5455" stroke="black" stroke-width="2" stroke-linecap="round" stroke-linejoin="round" />
</svg>