<svg width="30" height="30" viewBox="0 0 30 30" fill="none" xmlns="http://www.w3.org/2000/svg">
<path fill-rule="evenodd" clip-rule="evenodd" d="M19.6875 9.375C19.6875 10.6182 19.1936 11.8105 18.3146 12.6895C17.4355 13.5686 16.2432 14.0625 15 14.0625C13.7568 14.0625 12.5645 13.5686 11.6854 12.6895C10.8064 11.8105 10.3125 10.6182 10.3125 9.375C10.3125 8.1318 10.8064 6.9395 11.6854 6.06043C12.5645 5.18135 13.7568 4.6875 15 4.6875C16.2432 4.6875 17.4355 5.18135 18.3146 6.06043C19.1936 6.9395 19.6875 8.1318 19.6875 9.375ZM19.8019 15.1369C20.9856 14.1499 21.8364 12.8223 22.239 11.3346C22.6414 9.84692 22.5756 8.27137 22.0507 6.82234C21.5259 5.3733 20.5674 4.12112 19.3057 3.23614C18.044 2.35117 16.5402 1.8764 14.9991 1.8764C13.4579 1.8764 11.9542 2.35117 10.6924 3.23614C9.43067 4.12112 8.47216 5.3733 7.94735 6.82234C7.42252 8.27137 7.35682 9.84692 7.75921 11.3346C8.16161 12.8223 9.01254 14.1499 10.1962 15.1369C8.35048 16.0095 6.77675 17.3677 5.64356 19.0659C4.51036 20.7643 3.86036 22.7387 3.76312 24.7781C3.75408 25.1456 3.88927 25.5021 4.13977 25.7709C4.39025 26.04 4.73611 26.2003 5.10331 26.2174C5.4705 26.2346 5.8298 26.1073 6.10428 25.8628C6.37876 25.6183 6.54662 25.2761 6.57187 24.9094C6.6741 22.7428 7.60668 20.6989 9.17608 19.2019C10.7455 17.7047 12.8311 16.8695 15 16.8695C17.1689 16.8695 19.2546 17.7047 20.8239 19.2019C22.3933 20.6989 23.3259 22.7428 23.4281 24.9094C23.4328 25.0967 23.4746 25.281 23.5515 25.4518C23.6284 25.6226 23.7386 25.7764 23.8757 25.9039C24.0127 26.0316 24.174 26.1306 24.3497 26.1951C24.5256 26.2596 24.7125 26.2882 24.8996 26.2794C25.0867 26.2708 25.2701 26.2247 25.4392 26.1441C25.6082 26.0634 25.7595 25.95 25.884 25.8101C26.0087 25.6702 26.1039 25.5069 26.1645 25.3297C26.2252 25.1526 26.2498 24.9649 26.2369 24.7781C26.1394 22.7385 25.4891 20.7639 24.3557 19.0656C23.2221 17.3673 21.648 16.0092 19.8019 15.1369Z" fill="#616161"/>
</svg>
