<svg width="17" height="17" viewBox="0 0 17 17" fill="none" xmlns="http://www.w3.org/2000/svg">
<path d="M1 8.5C1 5.21252 1 3.56878 1.90796 2.46243C2.07418 2.25989 2.25989 2.07418 2.46243 1.90796C3.56878 1 5.21252 1 8.5 1V1C11.7875 1 13.4312 1 14.5376 1.90796C14.7401 2.07418 14.9258 2.25989 15.092 2.46243C16 3.56878 16 5.21252 16 8.5V8.5C16 11.7875 16 13.4312 15.092 14.5376C14.9258 14.7401 14.7401 14.9258 14.5376 15.092C13.4312 16 11.7875 16 8.5 16V16C5.21252 16 3.56878 16 2.46243 15.092C2.25989 14.9258 2.07418 14.7401 1.90796 14.5376C1 13.4312 1 11.7875 1 8.5V8.5Z" stroke="#51ECC7" stroke-width="2"/>
<path d="M8.5 5.16663L8.5 11.8333" stroke="#51ECC7" stroke-width="2" stroke-linecap="square" stroke-linejoin="round"/>
<path d="M11.8334 8.5L5.16671 8.5" stroke="#51ECC7" stroke-width="2" stroke-linecap="square" stroke-linejoin="round"/>
</svg>
