<svg width="30" height="30" viewBox="0 0 30 30" fill="none" xmlns="http://www.w3.org/2000/svg">
<g clip-path="url(#clip0_87_80)">
<path fill-rule="evenodd" clip-rule="evenodd" d="M26.3701 0C22.019 0.000183331 17.8461 1.72881 14.7694 4.80562L13.9088 5.66437C13.3201 6.25312 12.7538 6.86625 12.2138 7.5H6.20631C5.64602 7.50017 5.09513 7.64379 4.60607 7.91719C4.11703 8.1906 3.70615 8.58467 3.41256 9.06188L0.206308 14.2631C0.0937584 14.4459 0.0245589 14.6521 0.00401347 14.8658C-0.016532 15.0795 0.0121221 15.2951 0.0877792 15.496C0.163437 15.6969 0.284088 15.8778 0.440488 16.0248C0.596885 16.1719 0.784878 16.2812 0.990058 16.3444L6.80631 18.1331C6.87568 18.2287 6.95443 18.3206 7.03881 18.405L11.5932 22.9575C11.6794 23.0438 11.7694 23.1225 11.8651 23.1919L13.6538 29.0081C13.717 29.2132 13.8263 29.4013 13.9733 29.5577C14.1204 29.7141 14.3013 29.8348 14.5022 29.9104C14.7031 29.9861 14.9187 30.0146 15.1324 29.9942C15.3461 29.9736 15.5522 29.9044 15.7351 29.7919L20.9363 26.5912C21.4135 26.2976 21.8076 25.8868 22.081 25.3978C22.3544 24.9086 22.498 24.3577 22.4982 23.7975V17.7844C23.132 17.2444 23.7451 16.6781 24.3338 16.0894L25.1926 15.2287C28.2696 12.1529 29.999 7.98075 30.0001 3.63V3.28125C30.0001 2.41101 29.6543 1.57641 29.039 0.961056C28.4236 0.345701 27.589 0 26.7188 0H26.3701ZM19.6876 19.9219C19.5226 20.0344 19.3557 20.1431 19.1888 20.25L14.7826 23.1019L15.8101 26.445L19.4645 24.195C19.5327 24.153 19.589 24.0943 19.628 24.0244C19.6671 23.9544 19.6876 23.8757 19.6876 23.7956V19.9219ZM6.89631 15.2175L9.75006 10.8112C9.85881 10.6425 9.96943 10.4775 10.0801 10.3125H6.20443C6.12435 10.3125 6.04558 10.333 5.97568 10.372C5.90576 10.4111 5.84702 10.4674 5.80506 10.5356L3.55506 14.1919L6.89631 15.2175ZM16.7588 6.79312C19.3075 4.24483 22.7641 2.81302 26.3682 2.8125H26.717C26.8413 2.8125 26.9605 2.86189 27.0485 2.94979C27.1364 3.03771 27.1857 3.15694 27.1857 3.28125V3.63C27.1859 5.41524 26.8345 7.18305 26.1515 8.83249C25.4686 10.4819 24.4673 11.9806 23.2051 13.2431L22.3445 14.1019C20.9195 15.5269 19.3501 16.7963 17.6588 17.8894L13.3144 20.7019L9.29631 16.6838L12.1088 12.3394C13.2027 10.6478 14.4722 9.07659 15.8963 7.65187L16.7551 6.79312H16.7588ZM22.5001 9.375C22.5001 9.87229 22.3025 10.3492 21.9509 10.7008C21.5993 11.0525 21.1223 11.25 20.6251 11.25C20.1278 11.25 19.6508 11.0525 19.2993 10.7008C18.9475 10.3492 18.7501 9.87229 18.7501 9.375C18.7501 8.87771 18.9475 8.40081 19.2993 8.04917C19.6508 7.69755 20.1278 7.5 20.6251 7.5C21.1223 7.5 21.5993 7.69755 21.9509 8.04917C22.3025 8.40081 22.5001 8.87771 22.5001 9.375ZM6.67506 27.3C6.95138 27.0426 7.17302 26.7321 7.32673 26.3871C7.48046 26.0421 7.56311 25.6697 7.56977 25.2919C7.57645 24.9143 7.50698 24.5392 7.36553 24.189C7.22406 23.8387 7.01351 23.5208 6.74646 23.2536C6.47938 22.9866 6.16125 22.776 5.81106 22.6346C5.46084 22.4931 5.08573 22.4237 4.70811 22.4303C4.33046 22.437 3.95803 22.5197 3.61303 22.6732C3.26805 22.827 2.95753 23.0486 2.70006 23.325C1.32381 24.6937 0.736933 27.6975 0.543808 28.9556C0.532389 29.0235 0.537352 29.0931 0.558283 29.1585C0.579213 29.2239 0.615506 29.2836 0.66413 29.3321C0.712756 29.3809 0.772304 29.4171 0.837808 29.4381C0.903313 29.4589 0.972871 29.4639 1.04068 29.4525C2.29881 29.2594 5.30256 28.6725 6.67506 27.3Z" fill="#616161"/>
</g>
<defs>
<clipPath id="clip0_87_80">
<rect width="30" height="30" fill="white"/>
</clipPath>
</defs>
</svg>
